<svg xmlns="http://www.w3.org/2000/svg" viewBox="0 0 24 24" fill="none" stroke="#2B5DE0" stroke-width="1.5" stroke-linecap="round" stroke-linejoin="round">
  <path d="M6.081 20c2.841-2.46 4.022-4.84 4.022-9.12V4.714a.522.522 0 0 1 .306-.486 4.502 4.502 0 0 1 3.182 0 .522.522 0 0 1 .306.486v6.164c0 4.282 1.18 6.66 4.022 9.122"></path>
  <path d="M11 4a1 1 0 1 0 2 0a1 1 0 0 0 -2 0"></path>
  <path d="M2 12h3.5a3.5 3.5 0 0 1 0 7H4"></path>
  <path d="M19 12h2.5a3.5 3.5 0 0 0 .1 7H20"></path>
  <path d="M9 12a3 3 0 0 0 3 -3a3 3 0 0 1 3 3a3 3 0 0 1 -3 3a3 3 0 0 0 -3 -3"></path>
</svg> 